<mxfile host="app.diagrams.net" modified="2023-05-23T15:41:42.951Z" agent="Mozilla/5.0 (Windows NT 10.0; Win64; x64) AppleWebKit/537.36 (KHTML, like Gecko) Chrome/113.0.0.0 Safari/537.36" etag="-0Ayh4D-r0cezCsH6-WS" version="21.2.9" type="device">
  <diagram name="Page-1" id="gXw7V6yeX56r2IxKVHyl">
    <mxGraphModel dx="1199" dy="630" grid="1" gridSize="10" guides="1" tooltips="1" connect="1" arrows="1" fold="1" page="1" pageScale="1" pageWidth="827" pageHeight="1169" math="0" shadow="0">
      <root>
        <mxCell id="0" />
        <mxCell id="1" parent="0" />
        <mxCell id="AuHLu5DAWzA9QYuiBLtz-7" style="edgeStyle=orthogonalEdgeStyle;rounded=0;orthogonalLoop=1;jettySize=auto;html=1;entryX=0.5;entryY=0;entryDx=0;entryDy=0;dashed=1;" edge="1" parent="1" source="1rMhWMOryr5HEqoQoXDy-3" target="AuHLu5DAWzA9QYuiBLtz-1">
          <mxGeometry relative="1" as="geometry" />
        </mxCell>
        <mxCell id="AuHLu5DAWzA9QYuiBLtz-9" style="edgeStyle=orthogonalEdgeStyle;rounded=0;orthogonalLoop=1;jettySize=auto;html=1;entryX=0.5;entryY=0;entryDx=0;entryDy=0;" edge="1" parent="1" source="1rMhWMOryr5HEqoQoXDy-3" target="AuHLu5DAWzA9QYuiBLtz-2">
          <mxGeometry relative="1" as="geometry" />
        </mxCell>
        <mxCell id="AuHLu5DAWzA9QYuiBLtz-10" style="edgeStyle=orthogonalEdgeStyle;rounded=0;orthogonalLoop=1;jettySize=auto;html=1;entryX=0.5;entryY=0;entryDx=0;entryDy=0;" edge="1" parent="1" source="1rMhWMOryr5HEqoQoXDy-3" target="AuHLu5DAWzA9QYuiBLtz-3">
          <mxGeometry relative="1" as="geometry" />
        </mxCell>
        <mxCell id="1rMhWMOryr5HEqoQoXDy-3" value="ICM.WebSites" style="rounded=1;whiteSpace=wrap;html=1;" parent="1" vertex="1">
          <mxGeometry x="250" y="40" width="160" height="40" as="geometry" />
        </mxCell>
        <mxCell id="AuHLu5DAWzA9QYuiBLtz-12" style="edgeStyle=orthogonalEdgeStyle;rounded=0;orthogonalLoop=1;jettySize=auto;html=1;entryX=0;entryY=0.5;entryDx=0;entryDy=0;" edge="1" parent="1" source="AuHLu5DAWzA9QYuiBLtz-1" target="AuHLu5DAWzA9QYuiBLtz-3">
          <mxGeometry relative="1" as="geometry" />
        </mxCell>
        <mxCell id="AuHLu5DAWzA9QYuiBLtz-13" style="edgeStyle=orthogonalEdgeStyle;rounded=0;orthogonalLoop=1;jettySize=auto;html=1;entryX=0.5;entryY=1;entryDx=0;entryDy=0;" edge="1" parent="1" source="AuHLu5DAWzA9QYuiBLtz-1" target="AuHLu5DAWzA9QYuiBLtz-2">
          <mxGeometry relative="1" as="geometry">
            <Array as="points">
              <mxPoint x="120" y="210" />
              <mxPoint x="540" y="210" />
            </Array>
          </mxGeometry>
        </mxCell>
        <mxCell id="AuHLu5DAWzA9QYuiBLtz-1" value="ICM.WebSites.Infrastructure" style="rounded=1;whiteSpace=wrap;html=1;" vertex="1" parent="1">
          <mxGeometry x="40" y="120" width="160" height="40" as="geometry" />
        </mxCell>
        <mxCell id="AuHLu5DAWzA9QYuiBLtz-11" style="edgeStyle=orthogonalEdgeStyle;rounded=0;orthogonalLoop=1;jettySize=auto;html=1;entryX=1;entryY=0.5;entryDx=0;entryDy=0;" edge="1" parent="1" source="AuHLu5DAWzA9QYuiBLtz-2" target="AuHLu5DAWzA9QYuiBLtz-3">
          <mxGeometry relative="1" as="geometry" />
        </mxCell>
        <mxCell id="AuHLu5DAWzA9QYuiBLtz-2" value="ICM.WebSites.Application" style="rounded=1;whiteSpace=wrap;html=1;" vertex="1" parent="1">
          <mxGeometry x="460" y="120" width="160" height="40" as="geometry" />
        </mxCell>
        <mxCell id="AuHLu5DAWzA9QYuiBLtz-3" value="ICM.WebSites.Domain" style="rounded=1;whiteSpace=wrap;html=1;" vertex="1" parent="1">
          <mxGeometry x="250" y="120" width="160" height="40" as="geometry" />
        </mxCell>
      </root>
    </mxGraphModel>
  </diagram>
</mxfile>
